{
  "accessors": [
    {
      "bufferView": 2,
      "componentType": 5126,
      "count": 3264,
      "max": [
        200,
        200.00001525878906,
        158.63479614257812
      ],
      "min": [
        0,
        0,
        0
      ],
      "type": "VEC3"
    },
    {
      "bufferView": 2,
      "byteOffset": 39168,
      "componentType": 5126,
      "count": 3264,
      "max": [
        1,
        1,
        1
      ],
      "min": [
        -1,
        -1,
        -1
      ],
      "type": "VEC3"
    },
    {
      "bufferView": 3,
      "componentType": 5126,
      "count": 3264,
      "max": [
        1,
        1,
        1,
        1
      ],
      "min": [
        -1,
        -1,
        -1,
        -1
      ],
      "type": "VEC4"
    },
    {
      "bufferView": 1,
      "componentType": 5126,
      "count": 3264,
      "max": [
        0.96841198205947876,
        0.97077900171279907
      ],
      "min": [
        0.004999999888241291,
        0.004999999888241291
      ],
      "type": "VEC2"
    },
    {
      "bufferView": 0,
      "componentType": 5125,
      "count": 9810,
      "max": [
        3263
      ],
      "min": [
        0
      ],
      "type": "SCALAR"
    },
    {
      "bufferView": 2,
      "byteOffset": 78336,
      "componentType": 5126,
      "count": 2062,
      "max": [
        200,
        200.00001525878906,
        160.54893493652344
      ],
      "min": [
        0,
        0,
        0
      ],
      "type": "VEC3"
    },
    {
      "bufferView": 2,
      "byteOffset": 103080,
      "componentType": 5126,
      "count": 2062,
      "max": [
        0.99959647655487061,
        0.99959665536880493,
        0.99925076961517334
      ],
      "min": [
        -0.99959647655487061,
        -0.9995962381362915,
        -0.99877697229385376
      ],
      "type": "VEC3"
    },
    {
      "bufferView": 3,
      "byteOffset": 52224,
      "componentType": 5126,
      "count": 2062,
      "max": [
        1,
        1,
        0.99959647655487061,
        1
      ],
      "min": [
        -1,
        -1,
        -0.99959641695022583,
        -1
      ],
      "type": "VEC4"
    },
    {
      "bufferView": 1,
      "byteOffset": 26112,
      "componentType": 5126,
      "count": 2062,
      "max": [
        0.96965700387954712,
        0.97229301929473877
      ],
      "min": [
        0.004999999888241291,
        0.004999999888241291
      ],
      "type": "VEC2"
    },
    {
      "bufferView": 0,
      "byteOffset": 39240,
      "componentType": 5125,
      "count": 8592,
      "max": [
        2061
      ],
      "min": [
        0
      ],
      "type": "SCALAR"
    },
    {
      "bufferView": 2,
      "byteOffset": 127824,
      "componentType": 5126,
      "count": 792,
      "max": [
        145.94964599609375,
        145.94964599609375,
        160.04734802246094
      ],
      "min": [
        54.050350189208984,
        54.05035400390625,
        133.89549255371094
      ],
      "type": "VEC3"
    },
    {
      "bufferView": 2,
      "byteOffset": 137328,
      "componentType": 5126,
      "count": 792,
      "max": [
        1,
        1,
        -0
      ],
      "min": [
        -1,
        -1,
        -0.99813652038574219
      ],
      "type": "VEC3"
    },
    {
      "bufferView": 3,
      "byteOffset": 85216,
      "componentType": 5126,
      "count": 792,
      "max": [
        1,
        1,
        1,
        1
      ],
      "min": [
        -1,
        -0.77301084995269775,
        -1,
        -1
      ],
      "type": "VEC4"
    },
    {
      "bufferView": 1,
      "byteOffset": 42608,
      "componentType": 5126,
      "count": 792,
      "max": [
        0.95405197143554688,
        0.99500000476837158
      ],
      "min": [
        0.028529999777674675,
        0.33870300650596619
      ],
      "type": "VEC2"
    },
    {
      "bufferView": 0,
      "byteOffset": 73608,
      "componentType": 5125,
      "count": 3456,
      "max": [
        791
      ],
      "min": [
        0
      ],
      "type": "SCALAR"
    },
    {
      "bufferView": 2,
      "byteOffset": 146832,
      "componentType": 5126,
      "count": 1380,
      "max": [
        171.52702331542969,
        171.52703857421875,
        185.46372985839844
      ],
      "min": [
        28.472991943359375,
        28.472984313964844,
        160.54890441894531
      ],
      "type": "VEC3"
    },
    {
      "bufferView": 2,
      "byteOffset": 163392,
      "componentType": 5126,
      "count": 1380,
      "max": [
        1,
        1,
        0.99968564510345459
      ],
      "min": [
        -1,
        -1,
        -1
      ],
      "type": "VEC3"
    },
    {
      "bufferView": 3,
      "byteOffset": 97888,
      "componentType": 5126,
      "count": 1380,
      "max": [
        1,
        1,
        1,
        1
      ],
      "min": [
        -1,
        -1,
        -1,
        -1
      ],
      "type": "VEC4"
    },
    {
      "bufferView": 1,
      "byteOffset": 48944,
      "componentType": 5126,
      "count": 1380,
      "max": [
        0.93951499462127686,
        0.93523597717285156
      ],
      "min": [
        0.004999999888241291,
        0.004999999888241291
      ],
      "type": "VEC2"
    },
    {
      "bufferView": 0,
      "byteOffset": 87432,
      "componentType": 5125,
      "count": 7098,
      "max": [
        1379
      ],
      "min": [
        0
      ],
      "type": "SCALAR"
    }
  ],
  "asset": {
    "extras": {
      "author": "Miljan Bojovic (https://sketchfab.com/phoenix-storms)",
      "license": "CC-BY-4.0 (http://creativecommons.org/licenses/by/4.0/)",
      "source": "https://sketchfab.com/models/012e4809a41445ca9de17286f677fabb",
      "title": "Emergency Stop Button"
    },
    "generator": "Sketchfab-3.19.5",
    "version": "2.0"
  },
  "bufferViews": [
    {
      "buffer": 0,
      "byteLength": 115824,
      "byteOffset": 0,
      "name": "floatBufferViews",
      "target": 34963
    },
    {
      "buffer": 0,
      "byteLength": 59984,
      "byteOffset": 115824,
      "byteStride": 8,
      "name": "floatBufferViews",
      "target": 34962
    },
    {
      "buffer": 0,
      "byteLength": 179952,
      "byteOffset": 175808,
      "byteStride": 12,
      "name": "floatBufferViews",
      "target": 34962
    },
    {
      "buffer": 0,
      "byteLength": 119968,
      "byteOffset": 355760,
      "byteStride": 16,
      "name": "floatBufferViews",
      "target": 34962
    }
  ],
  "buffers": [
    {
      "byteLength": 475728,
      "uri": "scene.bin"
    }
  ],
  "images": [
    {
      "uri": "textures/Scene_-_Root_normal.png"
    },
    {
      "uri": "textures/Scene_-_Root_metallicRoughness.png"
    },
    {
      "uri": "textures/Scene_-_Root_baseColor.png"
    }
  ],
  "materials": [
    {
      "doubleSided": true,
      "emissiveFactor": [
        0,
        0,
        0
      ],
      "name": "Scene_-_Root",
      "normalTexture": {
        "index": 0,
        "scale": 1,
        "texCoord": 0
      },
      "pbrMetallicRoughness": {
        "baseColorFactor": [
          1,
          1,
          1,
          1
        ],
        "baseColorTexture": {
          "index": 2,
          "texCoord": 0
        },
        "metallicFactor": 1,
        "metallicRoughnessTexture": {
          "index": 1,
          "texCoord": 0
        },
        "roughnessFactor": 1
      }
    }
  ],
  "meshes": [
    {
      "primitives": [
        {
          "attributes": {
            "NORMAL": 1,
            "POSITION": 0,
            "TANGENT": 2,
            "TEXCOORD_0": 3
          },
          "indices": 4,
          "material": 0,
          "mode": 4
        }
      ]
    },
    {
      "primitives": [
        {
          "attributes": {
            "NORMAL": 6,
            "POSITION": 5,
            "TANGENT": 7,
            "TEXCOORD_0": 8
          },
          "indices": 9,
          "material": 0,
          "mode": 4
        }
      ]
    },
    {
      "primitives": [
        {
          "attributes": {
            "NORMAL": 11,
            "POSITION": 10,
            "TANGENT": 12,
            "TEXCOORD_0": 13
          },
          "indices": 14,
          "material": 0,
          "mode": 4
        }
      ]
    },
    {
      "primitives": [
        {
          "attributes": {
            "NORMAL": 16,
            "POSITION": 15,
            "TANGENT": 17,
            "TEXCOORD_0": 18
          },
          "indices": 19,
          "material": 0,
          "mode": 4
        }
      ]
    }
  ],
  "nodes": [
    {
      "children": [
        1
      ],
      "name": "RootNode (gltf orientation matrix)",
      "rotation": [
        -0.70710678118654746,
        -0,
        -0,
        0.70710678118654757
      ]
    },
    {
      "children": [
        2
      ],
      "name": "RootNode (model correction matrix)"
    },
    {
      "children": [
        3
      ],
      "matrix": [
        1,
        0,
        0,
        0,
        0,
        1,
        0,
        0,
        0,
        0,
        1,
        0,
        -100,
        -100,
        -1.4999999621068127e-05,
        1
      ],
      "name": "export3dcoat.obj.cleaner.materialmerger.gles"
    },
    {
      "children": [
        4,
        5,
        6,
        7
      ],
      "name": ""
    },
    {
      "mesh": 0,
      "name": ""
    },
    {
      "mesh": 1,
      "name": ""
    },
    {
      "mesh": 2,
      "name": ""
    },
    {
      "mesh": 3,
      "name": ""
    }
  ],
  "samplers": [
    {
      "magFilter": 9729,
      "minFilter": 9987,
      "wrapS": 10497,
      "wrapT": 10497
    }
  ],
  "scene": 0,
  "scenes": [
    {
      "name": "OSG_Scene",
      "nodes": [
        0
      ]
    }
  ],
  "textures": [
    {
      "sampler": 0,
      "source": 0
    },
    {
      "sampler": 0,
      "source": 1
    },
    {
      "sampler": 0,
      "source": 2
    }
  ]
}

